<svg width="24" height="25" viewBox="0 0 24 25" fill="none" xmlns="http://www.w3.org/2000/svg">
<g clip-path="url(#clip0_10006_33794)">
<g clip-path="url(#clip1_10006_33794)">
<path d="M1.5 9.03707C1.5 6.42332 1.5 5.11607 2.0085 4.11782C2.45608 3.23969 3.17021 2.52583 4.0485 2.07857C5.04525 1.57007 6.3525 1.57007 8.96625 1.57007H15.0322C17.646 1.57007 18.9532 1.57007 19.9515 2.07857C20.8296 2.52615 21.5435 3.24028 21.9907 4.11857C22.5 5.11532 22.5 6.42257 22.5 9.03632V15.1023C22.5 17.7161 22.5 19.0233 21.9915 20.0216C21.5439 20.8997 20.8298 21.6136 19.9515 22.0608C18.9548 22.5701 17.6475 22.5701 15.0338 22.5701H8.96775C6.354 22.5701 5.04675 22.5701 4.0485 22.0616C3.17037 21.614 2.45651 20.8999 2.00925 20.0216C1.5 19.0248 1.5 17.7176 1.5 15.1038V9.03707Z" fill="white"/>
<path d="M16.5383 6.46228L12.0481 9.96628L7.45508 6.46228V6.46303L7.46108 6.46828V11.3748L11.9963 14.9553L16.5383 11.5128V6.46303V6.46228Z" fill="#EA4335"/>
<path d="M17.7181 5.60959L16.5376 6.46234V11.5136L20.2501 8.66434V6.94834C20.2501 6.94834 19.7993 4.49734 17.7181 5.60959Z" fill="#FBBC05"/>
<path d="M16.5381 11.5136V18.0641H19.3821C19.3821 18.0641 20.1921 17.9816 20.2498 17.0591V8.66357L16.5381 11.5128V11.5136Z" fill="#34A853"/>
<path d="M7.461 18.0701V11.3749L7.455 11.3704L7.461 18.0701ZM7.455 6.46312L6.282 5.61562C4.2015 4.50262 3.75 6.95287 3.75 6.95287V8.66887L7.455 11.3704V6.46312Z" fill="#C5221F"/>
<path d="M7.45508 6.46301V11.3703L7.46108 11.3748V6.46826L7.45508 6.46301Z" fill="#C5221F"/>
<path d="M3.75001 8.67029V17.0643C3.74913 17.3084 3.83645 17.5446 3.9959 17.7294C4.15534 17.9142 4.37618 18.0351 4.61776 18.07H7.46176L7.45501 11.3703L3.75001 8.67029Z" fill="#4285F4"/>
</g>
</g>
<defs>
<clipPath id="clip0_10006_33794">
<rect width="24" height="24" fill="white" transform="translate(0 0.0700684)"/>
</clipPath>
<clipPath id="clip1_10006_33794">
<rect width="24" height="24" fill="white" transform="translate(0 0.0700684)"/>
</clipPath>
</defs>
</svg>
