<svg width="24" height="25" viewBox="0 0 24 25" fill="none" xmlns="http://www.w3.org/2000/svg">
<g clip-path="url(#clip0_10006_33779)">
<g clip-path="url(#clip1_10006_33779)">
<path d="M12 1.57007C6.2085 1.57007 1.5 6.27857 1.5 12.0701C1.5 17.8616 6.2085 22.5701 12 22.5701C17.7915 22.5701 22.5 17.8616 22.5 12.0701C22.5 6.27857 17.7915 1.57007 12 1.57007Z" fill="#FDDD4C"/>
<path d="M7.40182 14.8075C7.17232 14.4603 7.74982 13.9338 7.51432 13.492C7.37932 13.237 7.15807 13.0788 6.89182 13.0458C6.76656 13.0297 6.63926 13.0433 6.52027 13.0857C6.40129 13.1281 6.29398 13.1979 6.20707 13.2895C5.94232 13.5768 5.90107 13.969 5.95207 14.107C5.97082 14.158 6.00082 14.1723 6.02182 14.1745C6.16582 14.194 6.24682 13.8243 6.29632 13.747C6.3689 13.6438 6.47819 13.5721 6.60185 13.5467C6.72551 13.5214 6.85419 13.5442 6.96157 13.6105C7.37032 13.8745 7.01632 14.302 7.04632 14.6628C7.07632 15.0145 7.29532 15.1555 7.49182 15.1705C7.68307 15.178 7.81657 15.0715 7.85032 14.9943C7.93132 14.809 7.59082 15.094 7.40182 14.8075ZM15.9436 11.617C15.8363 11.602 15.7186 11.602 15.5971 11.617C15.5048 11.5 15.4216 11.311 15.3751 11.0905C15.2918 10.6975 15.3001 10.4133 15.5326 10.3758C15.7651 10.339 15.8776 10.5768 15.9601 10.9698C16.0163 11.2338 16.0051 11.476 15.9436 11.617ZM13.3988 11.8503C13.4078 11.9395 13.4108 12.0295 13.4086 12.1128C13.6336 12.1255 13.7926 12.2328 13.8346 12.3003C13.8571 12.3348 13.8481 12.358 13.8406 12.3678C13.8181 12.4045 13.7678 12.3993 13.6636 12.3873C13.5666 12.3746 13.4688 12.3696 13.3711 12.3723C13.3163 12.5433 13.1513 12.5598 13.0351 12.433C12.9548 12.4578 12.7951 12.559 12.7486 12.4488C12.7486 12.394 12.8048 12.3145 12.9083 12.2448C12.8387 12.1099 12.7897 11.9653 12.7628 11.8158C12.6158 11.842 12.4838 11.8833 12.3803 11.9155C12.3316 11.9305 12.1388 12.0175 12.1163 11.9193C12.1013 11.8518 12.2063 11.74 12.3181 11.6598C12.4426 11.5713 12.5806 11.509 12.7231 11.4723C12.7208 11.2593 12.7748 11.1108 12.9293 11.086C13.1213 11.056 13.2406 11.2038 13.3223 11.4768C13.5548 11.5413 13.7858 11.7018 13.8886 11.8668C13.9283 11.9305 13.9358 11.9793 13.9103 12.0063C13.8458 12.0723 13.4903 11.8788 13.3988 11.8503ZM14.9236 12.808C15.0706 12.8793 15.2326 12.8508 15.2851 12.745C15.3376 12.6393 15.2611 12.496 15.1141 12.4248C14.9671 12.3535 14.8051 12.3813 14.7526 12.487C14.7001 12.5928 14.7766 12.7368 14.9236 12.808ZM15.6473 12.2815C15.6503 12.1195 15.7493 11.9905 15.8686 11.992C15.9886 11.995 16.0823 12.127 16.0801 12.289C16.0771 12.451 15.9781 12.58 15.8588 12.5778C15.7388 12.5763 15.6451 12.4435 15.6473 12.2815Z" fill="black"/>
<path fill-rule="evenodd" clip-rule="evenodd" d="M18.8836 14.266C18.8836 14.263 18.8866 14.2743 18.8836 14.266C19.1236 14.266 19.5001 14.5383 19.5001 15.1953C19.5001 15.8485 19.2256 16.5895 19.1604 16.7538C18.1704 19.0953 15.8079 20.3988 12.9939 20.3163C10.3704 20.2398 8.13237 18.8725 7.15362 16.645C6.56112 16.6458 5.95062 16.3885 5.48712 15.9828C4.99737 15.5553 4.69587 15.0018 4.63737 14.4243C4.58933 14.0072 4.64179 13.5847 4.79037 13.192L4.23987 12.7323C1.72362 10.6345 9.59487 1.99902 12.1126 4.16652C12.3992 4.44266 12.6855 4.71916 12.9714 4.99602C14.1856 4.48752 17.4376 3.51852 17.4414 5.77377C17.4429 6.52227 16.9591 7.39527 16.1844 8.18802C17.0799 9.00702 16.8436 10.1718 16.9869 11.2398L17.2974 11.3245C17.8899 11.4888 18.3114 11.707 18.5176 11.9215C18.7239 12.1345 18.8266 12.3415 18.8634 12.5845C18.8979 12.7795 18.8934 13.1253 18.6324 13.5115C18.7261 13.7613 18.8124 14.0095 18.8851 14.266H18.8836ZM7.10862 16.0375C7.196 16.0398 7.28339 16.0338 7.36962 16.0195C8.28912 15.865 8.52987 14.8788 8.37837 13.9105C8.20737 12.817 7.45812 12.4315 6.94962 12.4045C6.82203 12.3977 6.69408 12.4066 6.56862 12.4308C5.66112 12.6115 5.14812 13.3735 5.24937 14.3635C5.34087 15.2598 6.25887 16.015 7.10937 16.0375H7.10862ZM5.05362 12.7C5.35812 12.2628 5.85612 11.947 6.42087 11.8383C7.13937 9.93327 8.34087 8.17827 9.93012 6.96927C11.1091 5.99802 12.3811 5.30202 12.3811 5.30202C12.3811 5.30202 11.6964 4.51752 11.4894 4.45977C10.2166 4.12077 7.46787 5.99202 5.71287 8.46477C5.00262 9.46452 3.98637 11.236 4.47237 12.1473C4.53237 12.2598 4.87137 12.55 5.05287 12.6993L5.05362 12.7ZM15.3721 15.6003C15.3728 15.6105 15.3703 15.6207 15.3649 15.6294C15.3595 15.6382 15.3516 15.645 15.3421 15.649C15.3421 15.649 14.3199 16.1185 12.6954 15.6228C12.7539 16.1103 13.3441 16.294 13.7574 16.3608C15.7696 16.7028 17.6514 15.5665 18.0751 15.2808C18.1479 15.2313 18.0744 15.358 18.0609 15.376C17.5434 16.036 16.1484 16.801 14.3349 16.801C13.5436 16.801 12.7531 16.5258 12.4629 16.1035C12.0129 15.4473 12.4404 14.4903 13.1911 14.5893C14.4601 14.731 15.7606 14.6245 16.9351 14.0868C17.9589 13.6173 18.3451 13.1013 18.2874 12.6828C18.1974 12.0348 17.2374 11.9335 16.7514 11.776C16.5399 11.707 16.4356 11.6523 16.4116 11.26C16.3928 10.9214 16.3756 10.5826 16.3599 10.2438C16.3411 9.81102 16.2879 9.21927 15.9166 8.97552C15.8216 8.91396 15.7117 8.87923 15.5986 8.87502C15.5407 8.87075 15.4824 8.87581 15.4261 8.89002C15.4207 8.89118 15.4152 8.89218 15.4096 8.89302C15.2094 8.92677 15.0864 9.02802 14.9409 9.14802C14.9334 9.15552 14.9244 9.16227 14.9154 9.16902C14.4519 9.55077 14.0604 9.61302 13.6254 9.59427C13.4838 9.58705 13.3425 9.5758 13.2016 9.56052C13.0666 9.54777 12.9241 9.53352 12.7726 9.52527L12.5881 9.51477C11.8584 9.47727 11.0761 10.0998 10.9456 10.9825C10.8009 11.968 11.3521 12.5718 11.7106 12.964C11.7984 13.0615 11.8756 13.1455 11.9266 13.219C11.9604 13.264 11.9986 13.3263 11.9986 13.3863C11.9986 13.4575 11.9514 13.5138 11.9056 13.5625C11.1616 14.3178 10.9231 15.5178 11.2044 16.5175C11.2396 16.6428 11.2839 16.762 11.3364 16.8768C11.9941 18.394 14.0356 19.1013 16.0291 18.4578C17.4264 18.0078 18.6616 16.9188 18.9129 15.4165C18.9729 15.0258 18.8844 14.8743 18.7651 14.8015C18.6376 14.7243 18.4861 14.7513 18.4861 14.7513C18.4861 14.7513 18.4171 14.284 18.2214 13.8588C17.6401 14.311 16.8916 14.6298 16.3224 14.791C15.4096 15.049 14.4234 15.1503 13.4799 15.028C13.0974 14.9785 12.8409 14.9455 12.7306 15.298C13.9884 15.7533 15.3204 15.559 15.3204 15.559C15.3265 15.5583 15.3327 15.5588 15.3386 15.5605C15.3445 15.5622 15.3501 15.565 15.3549 15.5688C15.3597 15.5727 15.3637 15.5774 15.3666 15.5828C15.3696 15.5882 15.3715 15.5941 15.3721 15.6003ZM11.7414 6.77502C11.0536 7.12227 10.2849 7.74102 9.66087 8.45277C9.63912 8.47827 9.67212 8.51277 9.69837 8.49402C10.2384 8.10627 10.9764 7.74702 11.9446 7.51377C13.0284 7.25277 14.0724 7.36227 14.7099 7.50627C14.7421 7.51377 14.7624 7.45977 14.7339 7.44327C14.3124 7.21077 13.6659 7.05177 13.2076 7.04877C13.2025 7.0488 13.1974 7.0474 13.193 7.04472C13.1886 7.04204 13.185 7.03819 13.1827 7.0336C13.1804 7.029 13.1794 7.02385 13.1798 7.01871C13.1802 7.01358 13.1821 7.00866 13.1851 7.00452C13.2646 6.89952 13.3734 6.79527 13.4731 6.72027C13.4949 6.70302 13.4814 6.66777 13.4536 6.66927C12.8829 6.70377 11.5794 7.29852 11.5846 7.27677C11.6176 7.11852 11.7226 6.90927 11.7774 6.81177C11.7909 6.78852 11.7654 6.76377 11.7414 6.77502Z" fill="black"/>
</g>
</g>
<defs>
<clipPath id="clip0_10006_33779">
<rect width="24" height="24" fill="white" transform="translate(0 0.0700684)"/>
</clipPath>
<clipPath id="clip1_10006_33779">
<rect width="24" height="24" fill="white" transform="translate(0 0.0700684)"/>
</clipPath>
</defs>
</svg>
