<svg width="24" height="25" viewBox="0 0 24 25" fill="none" xmlns="http://www.w3.org/2000/svg">
<g clip-path="url(#clip0_10006_33810)">
<g clip-path="url(#clip1_10006_33810)">
<path d="M3.768 14.2938C3.768 15.0963 3.94425 15.7113 4.1745 16.0841C4.476 16.5716 4.926 16.7786 5.38425 16.7786C5.976 16.7786 6.51675 16.6316 7.55925 15.1886C8.3955 14.0336 9.3795 12.4106 10.0417 11.3936L11.1637 9.66934C11.9438 8.47309 12.8452 7.14184 13.8787 6.24034C14.7232 5.50384 15.6337 5.09509 16.5502 5.09509C18.0892 5.09509 19.5548 5.98759 20.6768 7.65934C21.9045 9.49009 22.5 11.7978 22.5 14.1776C22.5 15.5928 22.221 16.6331 21.7463 17.4551C21.288 18.2493 20.394 19.0428 18.8903 19.0428V16.7778C20.178 16.7778 20.499 15.5943 20.499 14.2406C20.499 12.3108 20.049 10.1696 19.0583 8.64034C18.3547 7.55509 17.4435 6.89134 16.4408 6.89134C15.3562 6.89134 14.4832 7.70959 13.503 9.16834C12.9817 9.94309 12.4455 10.8873 11.8455 11.9523L11.1833 13.1246C9.85425 15.4811 9.51825 16.0181 8.853 16.9046C7.68825 18.4548 6.69375 19.0428 5.38425 19.0428C3.83175 19.0428 2.84925 18.3701 2.24025 17.3568C1.74375 16.5311 1.5 15.4473 1.5 14.2128L3.768 14.2938Z" fill="#0081FB"/>
<path d="M3.28857 7.81909C4.32732 6.21634 5.82882 5.09509 7.55007 5.09509C8.54757 5.09509 9.53757 5.39059 10.5726 6.23509C11.7051 7.15909 12.9111 8.68009 14.4163 11.1873L14.9563 12.0873C16.2591 14.2571 17.0001 15.3738 17.4336 15.9003C17.9916 16.5768 18.3823 16.7778 18.8901 16.7778C20.1771 16.7778 20.4988 15.5951 20.4988 14.2413L22.4998 14.1776C22.4998 15.5928 22.2208 16.6331 21.7461 17.4551C21.2878 18.2493 20.3938 19.0428 18.8901 19.0428C17.9548 19.0428 17.1276 18.8403 16.2111 17.9763C15.5076 17.3126 14.6841 16.1351 14.0511 15.0761L12.1678 11.9298C11.2228 10.3511 10.3558 9.17359 9.85407 8.64034C9.31407 8.06734 8.62107 7.37509 7.51407 7.37509C6.61782 7.37509 5.85657 8.00359 5.21982 8.96509L3.28857 7.81909Z" fill="url(#paint0_linear_10006_33810)"/>
<path d="M7.5135 7.37584C6.618 7.37584 5.85675 8.00434 5.22 8.96584C4.32 10.3256 3.768 12.3498 3.768 14.2938C3.768 15.0963 3.94425 15.7113 4.1745 16.0841L2.24025 17.3576C1.74375 16.5311 1.5 15.4473 1.5 14.2128C1.5 11.9673 2.1165 9.62659 3.28875 7.81909C4.3275 6.21634 5.829 5.09509 7.55025 5.09509L7.5135 7.37584Z" fill="url(#paint1_linear_10006_33810)"/>
</g>
</g>
<defs>
<linearGradient id="paint0_linear_10006_33810" x1="5.95482" y1="13.6398" x2="20.4141" y2="14.3696" gradientUnits="userSpaceOnUse">
<stop stop-color="#0064E1"/>
<stop offset="0.4" stop-color="#0064E1"/>
<stop offset="0.83" stop-color="#0073EE"/>
<stop offset="1" stop-color="#0082FB"/>
</linearGradient>
<linearGradient id="paint1_linear_10006_33810" x1="4.7865" y1="15.2463" x2="4.7865" y2="9.91534" gradientUnits="userSpaceOnUse">
<stop stop-color="#0082FB"/>
<stop offset="1" stop-color="#0064E0"/>
</linearGradient>
<clipPath id="clip0_10006_33810">
<rect width="24" height="24" fill="white" transform="translate(0 0.0700684)"/>
</clipPath>
<clipPath id="clip1_10006_33810">
<rect width="24" height="24" fill="white" transform="translate(0 0.0700684)"/>
</clipPath>
</defs>
</svg>
