<svg width="24" height="25" viewBox="0 0 24 25" fill="none" xmlns="http://www.w3.org/2000/svg">
<g clip-path="url(#clip0_10006_33774)">
<g clip-path="url(#clip1_10006_33774)">
<path fill-rule="evenodd" clip-rule="evenodd" d="M14.4359 3.11138L4.44586 3.84638C3.64036 3.91613 3.35986 4.44113 3.35986 5.07038V15.9889C3.35986 16.4794 3.53461 16.8986 3.95536 17.4589L6.30361 20.5039C6.68986 20.9944 7.04011 21.0994 7.77661 21.0641L19.3776 20.3636C20.3594 20.2939 20.6399 19.8386 20.6399 19.0691V6.78563C20.6399 6.38813 20.4824 6.27263 20.0174 5.93363L19.9379 5.87588L16.7496 3.63638C15.9786 3.07613 15.6621 3.00638 14.4359 3.11138ZM8.03986 6.58388C7.09261 6.64838 6.87736 6.66263 6.33961 6.22613L4.97161 5.14013C4.83211 4.99988 4.90186 4.82513 5.25211 4.79063L14.8574 4.09013C15.6636 4.02038 16.0836 4.30013 16.3994 4.54538L18.0464 5.73563C18.1169 5.77013 18.2916 5.98013 18.0816 5.98013L8.16286 6.57488L8.04061 6.58313L8.03986 6.58388ZM6.93511 18.9641V8.53538C6.93511 8.08088 7.07536 7.87088 7.49536 7.83563L18.8871 7.17038C19.2734 7.13588 19.4481 7.38038 19.4481 7.83563V18.1931C19.4481 18.6491 19.3776 19.0346 18.7469 19.0691L7.84636 19.6991C7.21561 19.7344 6.93511 19.5244 6.93511 18.9641ZM17.6961 9.09488C17.7659 9.40988 17.6961 9.72488 17.3796 9.76088L16.8546 9.86588V17.5639C16.3986 17.8091 15.9779 17.9494 15.6276 17.9494C15.0666 17.9494 14.9264 17.7739 14.5064 17.2496L11.0699 11.8601V17.0741L12.1574 17.3194C12.1574 17.3194 12.1574 17.9494 11.2799 17.9494L8.86186 18.0896C8.79136 17.9494 8.86186 17.5991 9.10711 17.5294L9.73786 17.3546V10.4606L8.86186 10.3901C8.79211 10.0751 8.96686 9.62063 9.45811 9.58538L12.0516 9.41063L15.6269 14.8699V10.0399L14.7156 9.93563C14.6459 9.55013 14.9256 9.27038 15.2759 9.23588L17.6961 9.09488Z" fill="white"/>
</g>
</g>
<defs>
<clipPath id="clip0_10006_33774">
<rect width="24" height="24" fill="white" transform="translate(0 0.0700684)"/>
</clipPath>
<clipPath id="clip1_10006_33774">
<rect width="24" height="24" fill="white" transform="translate(0 0.0700684)"/>
</clipPath>
</defs>
</svg>
