<svg width="24" height="25" viewBox="0 0 24 25" fill="none" xmlns="http://www.w3.org/2000/svg">
<g clip-path="url(#clip0_10006_33786)">
<g clip-path="url(#clip1_10006_33786)">
<path d="M20.4809 11.2623C20.8802 11.2622 21.2704 11.1436 21.6024 10.9217C21.9343 10.6997 22.1929 10.3844 22.3456 10.0154C22.4983 9.64649 22.5382 9.24056 22.4602 8.84896C22.3822 8.45736 22.1899 8.09768 21.9075 7.8154C21.6251 7.53311 21.2654 7.34089 20.8737 7.26305C20.4821 7.18521 20.0762 7.22523 19.7073 7.37807C19.3384 7.5309 19.0231 7.78968 18.8013 8.12169C18.5795 8.4537 18.4611 8.84402 18.4611 9.24331V11.2623H20.4809ZM14.8266 11.2623C15.0918 11.2624 15.3544 11.2103 15.5995 11.1088C15.8445 11.0074 16.0672 10.8587 16.2548 10.6712C16.4423 10.4837 16.5911 10.2611 16.6926 10.0161C16.7941 9.77112 16.8464 9.50851 16.8464 9.24331V3.58981C16.8464 3.05424 16.6336 2.5406 16.2549 2.1619C15.8762 1.78319 15.3626 1.57043 14.827 1.57043C14.2914 1.57043 13.7778 1.78319 13.3991 2.1619C13.0204 2.5406 12.8076 3.05424 12.8076 3.58981V9.24331C12.8076 9.77878 13.0203 10.2923 13.399 10.671C13.7776 11.0496 14.2911 11.2623 14.8266 11.2623Z" fill="#2EB67D"/>
<path d="M3.51923 12.8778C3.11994 12.878 2.72966 12.9965 2.39774 13.2184C2.06581 13.4404 1.80715 13.7558 1.65445 14.1247C1.50175 14.4936 1.46188 14.8996 1.53986 15.2912C1.61785 15.6828 1.8102 16.0424 2.09259 16.3247C2.37499 16.607 2.73474 16.7992 3.12637 16.8771C3.51799 16.9549 3.92391 16.9149 4.29279 16.762C4.66167 16.6092 4.97695 16.3504 5.19877 16.0184C5.42058 15.6864 5.53898 15.2961 5.53898 14.8968V12.8778H3.51923ZM9.17348 12.8778C8.90828 12.8777 8.64565 12.9299 8.40061 13.0313C8.15557 13.1327 7.93291 13.2814 7.74534 13.4689C7.55778 13.6564 7.409 13.879 7.30749 14.124C7.20597 14.369 7.15373 14.6316 7.15373 14.8968V20.5503C7.15373 21.0859 7.36648 21.5995 7.74519 21.9782C8.1239 22.3569 8.63753 22.5697 9.1731 22.5697C9.70867 22.5697 10.2223 22.3569 10.601 21.9782C10.9797 21.5995 11.1925 21.0859 11.1925 20.5503V14.8976C11.1925 14.3621 10.9798 13.8485 10.6011 13.4699C10.2225 13.0913 9.70895 12.8778 9.17348 12.8778Z" fill="#E01E5A"/>
<path d="M12.8076 20.5511C12.8076 20.9504 12.926 21.3407 13.1479 21.6728C13.3697 22.0048 13.6851 22.2636 14.054 22.4164C14.4229 22.5692 14.8289 22.6092 15.2205 22.5313C15.6122 22.4534 15.9719 22.2611 16.2543 21.9787C16.5366 21.6963 16.7289 21.3366 16.8068 20.9449C16.8847 20.5533 16.8447 20.1473 16.6919 19.7784C16.5391 19.4095 16.2803 19.0942 15.9483 18.8723C15.6163 18.6505 15.2259 18.5321 14.8266 18.5321H12.8076V20.5511ZM12.8076 14.8976C12.8076 15.433 13.0203 15.9466 13.399 16.3252C13.7776 16.7038 14.2911 16.9166 14.8266 16.9166H20.4801C20.7453 16.9166 21.0079 16.8643 21.2529 16.7628C21.4979 16.6614 21.7205 16.5126 21.908 16.3251C22.0955 16.1376 22.2443 15.915 22.3458 15.67C22.4473 15.425 22.4995 15.1624 22.4995 14.8972C22.4995 14.632 22.4473 14.3694 22.3458 14.1244C22.2443 13.8794 22.0955 13.6568 21.908 13.4693C21.7205 13.2818 21.4979 13.133 21.2529 13.0315C21.0079 12.93 20.7453 12.8778 20.4801 12.8778H14.8274C14.5622 12.8777 14.2995 12.9299 14.0545 13.0313C13.8095 13.1327 13.5868 13.2814 13.3992 13.4689C13.2117 13.6564 13.0629 13.879 12.9614 14.124C12.8599 14.369 12.8076 14.6316 12.8076 14.8968V14.8976Z" fill="#ECB22E"/>
<path d="M11.1924 3.58907C11.1924 3.18975 11.074 2.7994 10.8521 2.46737C10.6302 2.13535 10.3149 1.87657 9.946 1.72376C9.57708 1.57094 9.17112 1.53096 8.77948 1.60886C8.38783 1.68677 8.02808 1.87906 7.74572 2.16142C7.46335 2.44378 7.27106 2.80353 7.19316 3.19518C7.11525 3.58683 7.15524 3.99278 7.30805 4.36171C7.46086 4.73063 7.71964 5.04596 8.05167 5.26781C8.38369 5.48966 8.77404 5.60807 9.17336 5.60807H11.1924V3.58907ZM11.1924 9.24257C11.1924 8.7071 10.9796 8.19356 10.601 7.81492C10.2224 7.43628 9.70884 7.22357 9.17336 7.22357H3.51986C3.25468 7.22357 2.99208 7.2758 2.74708 7.37729C2.50208 7.47877 2.27947 7.62751 2.09195 7.81503C1.90443 8.00255 1.75569 8.22516 1.6542 8.47016C1.55272 8.71516 1.50049 8.97776 1.50049 9.24294C1.50049 9.50813 1.55272 9.77072 1.6542 10.0157C1.75569 10.2607 1.90443 10.4833 2.09195 10.6709C2.27947 10.8584 2.50208 11.0071 2.74708 11.1086C2.99208 11.2101 3.25468 11.2623 3.51986 11.2623H9.17336C9.43857 11.2623 9.70117 11.2101 9.94617 11.1086C10.1912 11.007 10.4138 10.8583 10.6013 10.6707C10.7888 10.4831 10.9375 10.2605 11.0389 10.0154C11.1403 9.77039 11.1925 9.50777 11.1924 9.24257Z" fill="#36C5F0"/>
</g>
</g>
<defs>
<clipPath id="clip0_10006_33786">
<rect width="24" height="24" fill="white" transform="translate(0 0.0700684)"/>
</clipPath>
<clipPath id="clip1_10006_33786">
<rect width="24" height="24" fill="white" transform="translate(0 0.0700684)"/>
</clipPath>
</defs>
</svg>
